# xmcd
#
# Track frame offsets:
#	150
#	11502
#	25243
#	39459
#	51995
#	65077
#	77313
#	91508
#	105375
#	119351
#	131207
#	143848
#	158094
#	169430
#	181300
#	192874
#
# Disc length: 2749 seconds
#
# Revision: 0
# Processed by: cddbd v1.5.2PL0 Copyright (c) Steve Scherf et al.
# Submitted via: EasyCDDAExtractor 11.5.3.1
#
DISCID=ce0abb10
DTITLE=Various Artist - Blues Box 2
DYEAR=1976
DGENRE=Blues
TTITLE0=Frankie Jaxon - Let Me Ride Your Train
TTITLE1=Frankie Jaxon - You Can't Tell
TTITLE2=Nora Lee King - Because I Love My Daddy So
TTITLE3=Nora Lee King - Cannon Ball
TTITLE4=Connie McLean's Rhythm Boys - Sissy Man Blues
TTITLE5=Connie McLean's Rhythm Boys - Shylock Blues
TTITLE6=Tiny Mayberry - Mailman Blues
TTITLE7=Tiny Mayberry - Evil Hearted Woman
TTITLE8=Sam Price Blusicians - Oh Red!
TTITLE9=Sam Price Blusicians - The Dirty Dozens
TTITLE10=Helen Proctor - Cheatin' On Me
TTITLE11=Helen Proctor - Blues at Midnight
TTITLE12=Mabel Robinson - Me and My Chauffeur
TTITLE13=Mabel Robinson - I've Got Too Many Blues
TTITLE14=Ollie Shepard's Kentucky Boys - She Walks Like a Kangaroo
TTITLE15=Ollie Shepard's Kentucky Boys - Honey-Bee
EXTD=
EXTT0=
EXTT1=
EXTT2=
EXTT3=
EXTT4=
EXTT5=
EXTT6=
EXTT7=
EXTT8=
EXTT9=
EXTT10=
EXTT11=
EXTT12=
EXTT13=
EXTT14=
EXTT15=
PLAYORDER=
